<?xml version="1.0" encoding="utf-8"?>
<!-- Generator: Adobe Illustrator 16.0.0, SVG Export Plug-In . SVG Version: 6.00 Build 0)  -->
<!DOCTYPE svg PUBLIC "-//W3C//DTD SVG 1.1//EN" "http://www.w3.org/Graphics/SVG/1.1/DTD/svg11.dtd">
<svg version="1.1" id="Layer_1" xmlns="http://www.w3.org/2000/svg" xmlns:xlink="http://www.w3.org/1999/xlink" x="0px" y="0px"
	 width="700px" height="250px" viewBox="0 0 700 250" enable-background="new 0 0 700 250" xml:space="preserve">
<g>
	<rect x="8.825" y="26.712" fill="none" width="656.459" height="220.095"/>
	<path fill="#27AAE1" stroke="#000000" stroke-width="4" stroke-miterlimit="10" d="M164.685,56.944l-20.08,19.143
		c-13.66-14.438-29.028-21.657-46.103-21.657c-14.412,0-26.551,4.927-36.42,14.78c-9.87,9.853-14.804,21.999-14.804,36.438
		c0,10.059,2.186,18.989,6.556,26.79c4.371,7.8,10.552,13.925,18.543,18.372s16.871,6.672,26.638,6.672
		c8.332,0,15.946-1.557,22.845-4.67c6.897-3.113,14.479-8.775,22.745-16.987l19.465,20.312
		c-11.143,10.875-21.671,18.414-31.582,22.621c-9.913,4.203-21.226,6.307-33.94,6.307c-23.448,0-42.64-7.434-57.576-22.301
		c-14.937-14.869-22.405-33.924-22.405-57.167c0-15.038,3.4-28.403,10.203-40.093c6.801-11.689,16.542-21.088,29.224-28.198
		c12.68-7.109,26.335-10.664,40.964-10.664c12.441,0,24.42,2.627,35.94,7.883C146.415,39.78,156.344,47.254,164.685,56.944z"/>
	<path fill="#27AAE1" stroke="#000000" stroke-width="4" stroke-miterlimit="10" d="M269.069,69.708h27.993v111.563h-27.993v-11.793
		c-5.463,5.197-10.943,8.939-16.438,11.229c-5.497,2.289-11.454,3.436-17.872,3.436c-14.407,0-26.869-5.588-37.383-16.766
		c-10.515-11.176-15.772-25.07-15.772-41.682c0-17.227,5.087-31.342,15.261-42.349c10.174-11.005,22.531-16.509,37.076-16.509
		c6.691,0,12.971,1.266,18.843,3.794c5.872,2.53,11.3,6.324,16.286,11.382V69.708z M239.642,92.677
		c-8.653,0-15.84,3.06-21.563,9.177c-5.723,6.119-8.584,13.963-8.584,23.533c0,9.638,2.911,17.57,8.737,23.789
		c5.825,6.223,12.995,9.332,21.512,9.332c8.79,0,16.08-3.059,21.87-9.178c5.791-6.117,8.687-14.133,8.687-24.045
		c0-9.706-2.896-17.568-8.687-23.584C255.823,95.686,248.499,92.677,239.642,92.677z"/>
	<path fill="#27AAE1" stroke="#000000" stroke-width="4" stroke-miterlimit="10" d="M318.801,69.708h23.994v14.048
		c2.597-5.537,6.05-9.741,10.356-12.612s9.023-4.307,14.15-4.307c3.622,0,7.416,0.958,11.382,2.871l-8.716,24.097
		c-3.281-1.641-5.982-2.461-8.101-2.461c-4.307,0-7.947,2.666-10.92,7.998c-2.975,5.332-4.461,15.791-4.461,31.376l0.103,5.436
		v45.117h-27.788V69.708z"/>
	<path fill="#00A651" stroke="#000000" stroke-width="4" stroke-miterlimit="10" d="M534.851,55.045l-20.218,19.995
		c-12.795-13.535-27.71-20.303-44.745-20.303c-14.85,0-27.284,4.922-37.307,14.766c-10.023,9.844-15.035,21.807-15.035,35.889
		c0,14.561,5.2,26.901,15.602,37.016c10.401,10.119,23.233,15.176,38.494,15.176c9.922,0,18.289-2.084,25.098-6.254
		c6.81-4.17,12.301-10.697,16.476-19.586h-43.682v-26.967h75.879l0.205,6.357c0,13.194-3.419,25.704-10.254,37.53
		c-6.837,11.826-15.688,20.85-26.558,27.07c-10.869,6.219-23.619,9.33-38.247,9.33c-15.655,0-29.618-3.4-41.888-10.201
		c-12.271-6.803-21.979-16.492-29.121-29.07c-7.144-12.578-10.715-26.148-10.715-40.708c0-19.96,6.596-37.324,19.79-52.09
		c15.653-17.568,36.024-26.353,61.113-26.353c13.125,0,25.395,2.427,36.812,7.28C516.188,38.024,525.622,45.065,534.851,55.045z"/>
</g>
<path fill-rule="evenodd" clip-rule="evenodd" fill="#00A651" stroke="#000000" stroke-width="3" stroke-miterlimit="10" d="
	M629.655,48.272c1.914,0.249,3.834,0.458,5.741,0.752c12.671,1.958,23.969,7.011,33.772,15.263
	c13.105,11.029,21.074,25.048,23.988,41.925c0.313,1.81,0.443,3.649,0.667,5.476c0.038,0.311,0.115,0.619,0.175,0.927
	c0,3.231,0,6.46,0,9.69c-0.059,0.278-0.147,0.554-0.169,0.834c-0.464,5.92-1.691,11.678-3.667,17.273
	c-10.729,30.407-40.566,49.227-72.769,45.878c-11.317-1.179-21.695-4.991-31.147-11.32c-1.545-1.036-3.032-2.153-4.391-3.121
	c-5.604,5.594-11.15,11.133-16.699,16.674c3.304,3.739,2.215,8.105-0.748,11.04c-15.144,15.003-30.202,30.091-45.219,45.22
	c-1.44,1.45-2.834,2.32-4.854,1.933c-0.438-0.084-0.948-0.23-1.247-0.529c-5.661-5.618-11.297-11.265-16.935-16.908
	c-0.901-0.902-0.89-2.315,0.012-3.216c8.931-8.93,17.86-17.86,26.79-26.789c7.011-7.011,14.026-14.019,21.035-21.031
	c1.804-1.806,3.94-2.633,6.497-2.285c1.62,0.221,2.973,0.99,4.07,2.008c5.571-5.569,11.09-11.086,16.646-16.641
	c-0.058-0.078-0.17-0.229-0.285-0.378c-13.704-17.574-18.335-37.309-13.533-59.045c3.667-16.598,12.66-29.929,26.252-40.111
	c9.132-6.843,19.394-11.063,30.679-12.772c1.877-0.285,3.765-0.499,5.648-0.746C623.195,48.272,626.425,48.272,629.655,48.272z
	 M624.682,62.792c-30.04,0-54.534,24.505-54.531,54.555c0.003,30.42,24.43,54.79,54.898,54.773
	c29.998-0.016,54.421-24.542,54.43-54.657C679.487,87.184,655.04,62.792,624.682,62.792z"/>
<g>
</g>
<g>
</g>
<g>
</g>
<g>
</g>
<g>
</g>
<g>
</g>
</svg>
